<?xml version="1.0" encoding="utf-8"?><svg xml:space="preserve" viewBox="0 0 100 100" y="0" x="0" xmlns="http://www.w3.org/2000/svg" id="圖層_1" version="1.1" width="200px" height="200px" data-darkreader-inline-bgcolor="" data-darkreader-inline-bgimage="" xmlns:xlink="http://www.w3.org/1999/xlink" style="width:100%;height:100%;animation-play-state:paused" ><g class="ldl-scale" style="transform-origin:50% 50% 0px;transform:rotate(0deg) scale(0.8);animation-play-state:paused" ><g style="animation-play-state:paused" ><path fill="#4a3827" d="M16.498 80.532h-6.037A2.961 2.961 0 0 1 7.5 77.571V33.094a2.961 2.961 0 0 1 2.961-2.961h6.037a2.961 2.961 0 0 1 2.961 2.961v44.477a2.96 2.96 0 0 1-2.961 2.961z" data-darkreader-inline-fill="" style="fill:rgb(48, 157, 142);animation-play-state:paused" ></path>
<path d="M7.5 44.285h11.959V50H7.5z" fill="#e15b64" data-darkreader-inline-fill="" style="fill:rgb(36, 112, 116);animation-play-state:paused" ></path></g>
<g style="animation-play-state:paused" ><path fill="#333" d="M30.47 80.532h-5.28a3.34 3.34 0 0 1-3.339-3.339V22.807a3.34 3.34 0 0 1 3.339-3.339h5.28a3.34 3.34 0 0 1 3.339 3.339v54.386a3.34 3.34 0 0 1-3.339 3.339z" data-darkreader-inline-fill="" style="fill:rgb(85, 200, 157);animation-play-state:paused" ></path>
<path d="M21.851 36.066H33.81v5.715H21.851z" fill="#f47e60" data-darkreader-inline-fill="" style="fill:rgb(32, 70, 81);animation-play-state:paused" ></path></g>
<g style="animation-play-state:paused" ><path fill="#333" d="M45.32 80.532h-6.278a2.84 2.84 0 0 1-2.84-2.84V36.163a2.84 2.84 0 0 1 2.84-2.84h6.278a2.84 2.84 0 0 1 2.84 2.84v41.529a2.84 2.84 0 0 1-2.84 2.84z" data-darkreader-inline-fill="" style="fill:rgb(85, 200, 157);animation-play-state:paused" ></path>
<path d="M36.201 45.214H48.16v5.715H36.201z" fill="#f8b26a" data-darkreader-inline-fill="" style="fill:rgb(21, 33, 43);animation-play-state:paused" ></path></g>
<g style="animation-play-state:paused" ><path fill="#4a3827" d="M59.549 80.532h-6.037a2.961 2.961 0 0 1-2.961-2.961V33.094a2.961 2.961 0 0 1 2.961-2.961h6.037a2.961 2.961 0 0 1 2.961 2.961v44.477a2.96 2.96 0 0 1-2.961 2.961z" data-darkreader-inline-fill="" style="fill:rgb(48, 157, 142);animation-play-state:paused" ></path>
<path d="M50.552 41.427h11.959v5.715H50.552z" fill="#e15b64" data-darkreader-inline-fill="" style="fill:rgb(36, 112, 116);animation-play-state:paused" ></path></g>
<g style="animation-play-state:paused" ><path fill="#4a3827" d="M91.129 76.703l-6.096 3.168a2.544 2.544 0 0 1-3.431-1.084l-16.025-30.83a2.544 2.544 0 0 1 1.084-3.431l6.096-3.168a2.544 2.544 0 0 1 3.431 1.084l16.025 30.831a2.544 2.544 0 0 1-1.084 3.43z" data-darkreader-inline-fill="" style="fill:rgb(48, 157, 142);animation-play-state:paused" ></path>
<path d="M68.51 49.282h11.959v5.715H68.51z" fill="#e15b64" transform="rotate(-26.386 74.488 52.14)" data-darkreader-inline-fill="" style="fill:rgb(36, 112, 116);animation-play-state:paused" ></path></g>
<metadata xmlns:d="https://loading.io/stock/" style="animation-play-state:paused" ><d:name style="animation-play-state:paused" >books</d:name>
<d:tags style="animation-play-state:paused" >shelf,library,knowledge,catalog,index,content,archive,encyclopedia,bookcase,books,books</d:tags>
<d:license style="animation-play-state:paused" >by</d:license>
<d:slug style="animation-play-state:paused" >p54kt8</d:slug></metadata></g><!-- generated by https://loading.io/ --></svg>